<svg class="svg-icon" style="width: 1em; height: 1em;vertical-align: middle;fill: currentColor;overflow: hidden;" viewBox="0 0 1024 1024" version="1.1" xmlns="http://www.w3.org/2000/svg"><path d="M859.306667 332.373333C910.08 332.373333 951.04 373.333333 951.04 423.68 951.04 474.026667 910.08 514.986667 859.306667 514.986667 808.96 514.986667 768 474.026667 768 423.68 768 373.333333 808.96 332.373333 859.306667 332.373333M128 295.68C198.826667 295.68 256 352.853333 256 423.68L256 436.906667 526.08 577.706667C547.84 561.066667 574.293333 551.68 603.306667 551.68L695.04 423.68C695.04 332.8 768 258.986667 859.306667 258.986667 950.186667 258.986667 1024 332.8 1024 423.68 1024 514.56 950.186667 588.373333 859.306667 588.373333L731.306667 679.68C731.306667 750.506667 674.133333 807.68 603.306667 807.68 533.333333 807.68 475.306667 750.506667 475.306667 679.68 475.306667 677.973333 475.306667 676.266667 475.306667 674.986667L197.973333 530.773333C177.92 544 153.6 551.68 128 551.68 57.173333 551.68 0 494.506667 0 423.68 0 352.853333 57.173333 295.68 128 295.68M641.28 637.44C668.586667 651.093333 679.253333 683.946667 665.173333 711.253333 651.52 738.133333 618.666667 748.8 591.786667 735.146667L513.28 694.186667C520.106667 737.706667 558.08 770.986667 603.306667 770.986667 654.08 770.986667 695.04 730.026667 695.04 679.68 695.04 629.333333 654.08 588.373333 603.306667 588.373333 589.226667 588.373333 576 591.36 564.053333 597.333333L641.28 637.44M128 332.373333C77.653333 332.373333 36.693333 373.333333 36.693333 423.68 36.693333 474.026667 77.653333 514.986667 128 514.986667 138.24 514.986667 149.333333 513.28 157.866667 509.866667L97.28 478.72C69.973333 464.64 59.306667 431.786667 72.96 405.333333 87.04 378.026667 119.893333 366.933333 146.773333 381.013333L219.306667 418.56C216.746667 370.346667 176.64 332.373333 128 332.373333M859.306667 295.68C789.333333 295.68 731.306667 352.853333 731.306667 423.68 731.306667 494.506667 788.48 551.68 859.306667 551.68 930.133333 551.68 987.306667 494.506667 987.306667 423.68 987.306667 352.853333 930.133333 295.68 859.306667 295.68Z"  /></svg>